<mxfile host="app.diagrams.net" modified="2021-03-08T07:53:41.012Z" agent="5.0 (Windows NT 10.0; Win64; x64) AppleWebKit/537.36 (KHTML, like Gecko) Chrome/89.0.4389.82 Safari/537.36" etag="nTI38aIOVCkhMU0Hs4IS" version="14.4.4" type="github" pages="5">
  <diagram id="C5RBs43oDa-KdzZeNtuy" name="to device">
    <mxGraphModel dx="1422" dy="794" grid="1" gridSize="10" guides="1" tooltips="1" connect="1" arrows="1" fold="1" page="1" pageScale="1" pageWidth="827" pageHeight="1169" background="none" math="0" shadow="0">
      <root>
        <mxCell id="WIyWlLk6GJQsqaUBKTNV-0" />
        <mxCell id="WIyWlLk6GJQsqaUBKTNV-1" parent="WIyWlLk6GJQsqaUBKTNV-0" />
        <mxCell id="3GgUyswSTQB4f-KAUnW--2" value="" style="edgeStyle=orthogonalEdgeStyle;rounded=0;orthogonalLoop=1;jettySize=auto;html=1;" parent="WIyWlLk6GJQsqaUBKTNV-1" source="WIyWlLk6GJQsqaUBKTNV-3" target="3GgUyswSTQB4f-KAUnW--1" edge="1">
          <mxGeometry relative="1" as="geometry" />
        </mxCell>
        <mxCell id="WIyWlLk6GJQsqaUBKTNV-3" value="btn click push noti" style="rounded=1;whiteSpace=wrap;html=1;fontSize=12;glass=0;strokeWidth=1;shadow=0;" parent="WIyWlLk6GJQsqaUBKTNV-1" vertex="1">
          <mxGeometry x="70" y="60" width="120" height="40" as="geometry" />
        </mxCell>
        <mxCell id="WIyWlLk6GJQsqaUBKTNV-5" value="No" style="edgeStyle=orthogonalEdgeStyle;rounded=0;html=1;jettySize=auto;orthogonalLoop=1;fontSize=11;endArrow=block;endFill=0;endSize=8;strokeWidth=1;shadow=0;labelBackgroundColor=none;entryX=0.5;entryY=0;entryDx=0;entryDy=0;" parent="WIyWlLk6GJQsqaUBKTNV-1" source="WIyWlLk6GJQsqaUBKTNV-6" target="WIyWlLk6GJQsqaUBKTNV-7" edge="1">
          <mxGeometry y="10" relative="1" as="geometry">
            <mxPoint as="offset" />
            <mxPoint x="550" y="340" as="targetPoint" />
          </mxGeometry>
        </mxCell>
        <mxCell id="3GgUyswSTQB4f-KAUnW--45" value="" style="edgeStyle=orthogonalEdgeStyle;rounded=0;orthogonalLoop=1;jettySize=auto;html=1;" parent="WIyWlLk6GJQsqaUBKTNV-1" source="WIyWlLk6GJQsqaUBKTNV-6" target="3GgUyswSTQB4f-KAUnW--13" edge="1">
          <mxGeometry relative="1" as="geometry">
            <Array as="points">
              <mxPoint x="220" y="440" />
              <mxPoint x="220" y="440" />
            </Array>
          </mxGeometry>
        </mxCell>
        <mxCell id="3GgUyswSTQB4f-KAUnW--46" value="Yes" style="edgeLabel;html=1;align=center;verticalAlign=middle;resizable=0;points=[];" parent="3GgUyswSTQB4f-KAUnW--45" vertex="1" connectable="0">
          <mxGeometry x="-0.2982" y="2" relative="1" as="geometry">
            <mxPoint as="offset" />
          </mxGeometry>
        </mxCell>
        <mxCell id="WIyWlLk6GJQsqaUBKTNV-6" value="Submit/Cancel" style="rhombus;whiteSpace=wrap;html=1;shadow=0;fontFamily=Helvetica;fontSize=12;align=center;strokeWidth=1;spacing=6;spacingTop=-4;" parent="WIyWlLk6GJQsqaUBKTNV-1" vertex="1">
          <mxGeometry x="80" y="400" width="100" height="80" as="geometry" />
        </mxCell>
        <mxCell id="3GgUyswSTQB4f-KAUnW--10" value="" style="edgeStyle=orthogonalEdgeStyle;rounded=0;orthogonalLoop=1;jettySize=auto;html=1;" parent="WIyWlLk6GJQsqaUBKTNV-1" source="WIyWlLk6GJQsqaUBKTNV-7" target="3GgUyswSTQB4f-KAUnW--9" edge="1">
          <mxGeometry relative="1" as="geometry" />
        </mxCell>
        <mxCell id="WIyWlLk6GJQsqaUBKTNV-7" value="Reset form" style="rounded=1;whiteSpace=wrap;html=1;fontSize=12;glass=0;strokeWidth=1;shadow=0;" parent="WIyWlLk6GJQsqaUBKTNV-1" vertex="1">
          <mxGeometry x="70" y="560" width="120" height="40" as="geometry" />
        </mxCell>
        <mxCell id="3GgUyswSTQB4f-KAUnW--5" value="" style="edgeStyle=orthogonalEdgeStyle;rounded=0;orthogonalLoop=1;jettySize=auto;html=1;" parent="WIyWlLk6GJQsqaUBKTNV-1" source="3GgUyswSTQB4f-KAUnW--1" target="3GgUyswSTQB4f-KAUnW--4" edge="1">
          <mxGeometry relative="1" as="geometry" />
        </mxCell>
        <mxCell id="3GgUyswSTQB4f-KAUnW--1" value="Show modal" style="rounded=0;whiteSpace=wrap;html=1;" parent="WIyWlLk6GJQsqaUBKTNV-1" vertex="1">
          <mxGeometry x="70" y="130" width="120" height="60" as="geometry" />
        </mxCell>
        <mxCell id="3GgUyswSTQB4f-KAUnW--7" value="" style="edgeStyle=orthogonalEdgeStyle;rounded=0;orthogonalLoop=1;jettySize=auto;html=1;" parent="WIyWlLk6GJQsqaUBKTNV-1" source="3GgUyswSTQB4f-KAUnW--4" target="3GgUyswSTQB4f-KAUnW--6" edge="1">
          <mxGeometry relative="1" as="geometry" />
        </mxCell>
        <mxCell id="3GgUyswSTQB4f-KAUnW--4" value="Input data" style="rounded=0;whiteSpace=wrap;html=1;" parent="WIyWlLk6GJQsqaUBKTNV-1" vertex="1">
          <mxGeometry x="70" y="220" width="120" height="60" as="geometry" />
        </mxCell>
        <mxCell id="3GgUyswSTQB4f-KAUnW--8" style="edgeStyle=orthogonalEdgeStyle;rounded=0;orthogonalLoop=1;jettySize=auto;html=1;" parent="WIyWlLk6GJQsqaUBKTNV-1" source="3GgUyswSTQB4f-KAUnW--6" target="WIyWlLk6GJQsqaUBKTNV-6" edge="1">
          <mxGeometry relative="1" as="geometry" />
        </mxCell>
        <mxCell id="3GgUyswSTQB4f-KAUnW--6" value="User action" style="rounded=0;whiteSpace=wrap;html=1;" parent="WIyWlLk6GJQsqaUBKTNV-1" vertex="1">
          <mxGeometry x="70" y="310" width="120" height="60" as="geometry" />
        </mxCell>
        <mxCell id="3GgUyswSTQB4f-KAUnW--9" value="Hide modal" style="rounded=1;whiteSpace=wrap;html=1;fontSize=12;glass=0;strokeWidth=1;shadow=0;" parent="WIyWlLk6GJQsqaUBKTNV-1" vertex="1">
          <mxGeometry x="70" y="650" width="120" height="40" as="geometry" />
        </mxCell>
        <mxCell id="3GgUyswSTQB4f-KAUnW--12" value="&lt;h1&gt;push notification to all device&lt;/h1&gt;&lt;div&gt;&lt;br&gt;&lt;/div&gt;" style="text;html=1;strokeColor=none;fillColor=none;spacing=5;spacingTop=-20;whiteSpace=wrap;overflow=hidden;rounded=0;" parent="WIyWlLk6GJQsqaUBKTNV-1" vertex="1">
          <mxGeometry x="240" y="20" width="190" height="120" as="geometry" />
        </mxCell>
        <mxCell id="3GgUyswSTQB4f-KAUnW--16" value="" style="edgeStyle=orthogonalEdgeStyle;rounded=0;orthogonalLoop=1;jettySize=auto;html=1;" parent="WIyWlLk6GJQsqaUBKTNV-1" source="3GgUyswSTQB4f-KAUnW--13" target="3GgUyswSTQB4f-KAUnW--15" edge="1">
          <mxGeometry relative="1" as="geometry" />
        </mxCell>
        <mxCell id="3GgUyswSTQB4f-KAUnW--13" value="Validated feild" style="rounded=0;whiteSpace=wrap;html=1;" parent="WIyWlLk6GJQsqaUBKTNV-1" vertex="1">
          <mxGeometry x="294" y="410" width="120" height="60" as="geometry" />
        </mxCell>
        <mxCell id="3GgUyswSTQB4f-KAUnW--30" value="" style="edgeStyle=orthogonalEdgeStyle;rounded=0;orthogonalLoop=1;jettySize=auto;html=1;" parent="WIyWlLk6GJQsqaUBKTNV-1" source="3GgUyswSTQB4f-KAUnW--15" target="3GgUyswSTQB4f-KAUnW--29" edge="1">
          <mxGeometry relative="1" as="geometry" />
        </mxCell>
        <mxCell id="3GgUyswSTQB4f-KAUnW--15" value="Call API push noti" style="whiteSpace=wrap;html=1;rounded=0;" parent="WIyWlLk6GJQsqaUBKTNV-1" vertex="1">
          <mxGeometry x="480" y="410" width="120" height="60" as="geometry" />
        </mxCell>
        <mxCell id="3GgUyswSTQB4f-KAUnW--20" value="" style="edgeStyle=orthogonalEdgeStyle;rounded=0;orthogonalLoop=1;jettySize=auto;html=1;" parent="WIyWlLk6GJQsqaUBKTNV-1" source="3GgUyswSTQB4f-KAUnW--17" target="3GgUyswSTQB4f-KAUnW--19" edge="1">
          <mxGeometry relative="1" as="geometry" />
        </mxCell>
        <mxCell id="3GgUyswSTQB4f-KAUnW--38" value="Response" style="edgeLabel;html=1;align=center;verticalAlign=middle;resizable=0;points=[];" parent="3GgUyswSTQB4f-KAUnW--20" vertex="1" connectable="0">
          <mxGeometry x="-0.1714" y="1" relative="1" as="geometry">
            <mxPoint as="offset" />
          </mxGeometry>
        </mxCell>
        <mxCell id="3GgUyswSTQB4f-KAUnW--17" value="Push data to firebase server" style="whiteSpace=wrap;html=1;rounded=0;" parent="WIyWlLk6GJQsqaUBKTNV-1" vertex="1">
          <mxGeometry x="827" y="410" width="120" height="60" as="geometry" />
        </mxCell>
        <mxCell id="3GgUyswSTQB4f-KAUnW--22" value="" style="edgeStyle=orthogonalEdgeStyle;rounded=0;orthogonalLoop=1;jettySize=auto;html=1;" parent="WIyWlLk6GJQsqaUBKTNV-1" source="3GgUyswSTQB4f-KAUnW--19" target="3GgUyswSTQB4f-KAUnW--21" edge="1">
          <mxGeometry relative="1" as="geometry" />
        </mxCell>
        <mxCell id="3GgUyswSTQB4f-KAUnW--19" value="Firebase push to all device (tokens)" style="whiteSpace=wrap;html=1;rounded=0;" parent="WIyWlLk6GJQsqaUBKTNV-1" vertex="1">
          <mxGeometry x="827" y="560" width="120" height="60" as="geometry" />
        </mxCell>
        <mxCell id="3GgUyswSTQB4f-KAUnW--40" value="" style="edgeStyle=orthogonalEdgeStyle;rounded=0;orthogonalLoop=1;jettySize=auto;html=1;" parent="WIyWlLk6GJQsqaUBKTNV-1" source="3GgUyswSTQB4f-KAUnW--21" target="3GgUyswSTQB4f-KAUnW--39" edge="1">
          <mxGeometry relative="1" as="geometry" />
        </mxCell>
        <mxCell id="3GgUyswSTQB4f-KAUnW--41" value="Yes" style="edgeLabel;html=1;align=center;verticalAlign=middle;resizable=0;points=[];" parent="3GgUyswSTQB4f-KAUnW--40" vertex="1" connectable="0">
          <mxGeometry x="-0.1647" y="2" relative="1" as="geometry">
            <mxPoint as="offset" />
          </mxGeometry>
        </mxCell>
        <mxCell id="3GgUyswSTQB4f-KAUnW--43" value="" style="edgeStyle=orthogonalEdgeStyle;rounded=0;orthogonalLoop=1;jettySize=auto;html=1;" parent="WIyWlLk6GJQsqaUBKTNV-1" source="3GgUyswSTQB4f-KAUnW--21" target="3GgUyswSTQB4f-KAUnW--42" edge="1">
          <mxGeometry relative="1" as="geometry" />
        </mxCell>
        <mxCell id="3GgUyswSTQB4f-KAUnW--44" value="No" style="edgeLabel;html=1;align=center;verticalAlign=middle;resizable=0;points=[];" parent="3GgUyswSTQB4f-KAUnW--43" vertex="1" connectable="0">
          <mxGeometry x="-0.2444" y="-2" relative="1" as="geometry">
            <mxPoint as="offset" />
          </mxGeometry>
        </mxCell>
        <mxCell id="3GgUyswSTQB4f-KAUnW--21" value="success/fail" style="rhombus;whiteSpace=wrap;html=1;rounded=0;" parent="WIyWlLk6GJQsqaUBKTNV-1" vertex="1">
          <mxGeometry x="847" y="670" width="80" height="80" as="geometry" />
        </mxCell>
        <mxCell id="3GgUyswSTQB4f-KAUnW--32" value="" style="edgeStyle=orthogonalEdgeStyle;rounded=0;orthogonalLoop=1;jettySize=auto;html=1;entryX=0.5;entryY=0;entryDx=0;entryDy=0;" parent="WIyWlLk6GJQsqaUBKTNV-1" source="3GgUyswSTQB4f-KAUnW--29" target="3GgUyswSTQB4f-KAUnW--31" edge="1">
          <mxGeometry relative="1" as="geometry">
            <Array as="points">
              <mxPoint x="680" y="530" />
              <mxPoint x="680" y="530" />
            </Array>
          </mxGeometry>
        </mxCell>
        <mxCell id="3GgUyswSTQB4f-KAUnW--34" value="No" style="edgeLabel;html=1;align=center;verticalAlign=middle;resizable=0;points=[];" parent="3GgUyswSTQB4f-KAUnW--32" vertex="1" connectable="0">
          <mxGeometry x="-0.1273" y="-1" relative="1" as="geometry">
            <mxPoint as="offset" />
          </mxGeometry>
        </mxCell>
        <mxCell id="3GgUyswSTQB4f-KAUnW--36" value="" style="edgeStyle=orthogonalEdgeStyle;rounded=0;orthogonalLoop=1;jettySize=auto;html=1;" parent="WIyWlLk6GJQsqaUBKTNV-1" source="3GgUyswSTQB4f-KAUnW--29" target="3GgUyswSTQB4f-KAUnW--17" edge="1">
          <mxGeometry relative="1" as="geometry">
            <mxPoint x="640" y="545" as="targetPoint" />
          </mxGeometry>
        </mxCell>
        <mxCell id="3GgUyswSTQB4f-KAUnW--37" value="Yes" style="edgeLabel;html=1;align=center;verticalAlign=middle;resizable=0;points=[];" parent="3GgUyswSTQB4f-KAUnW--36" vertex="1" connectable="0">
          <mxGeometry x="-0.271" y="-2" relative="1" as="geometry">
            <mxPoint as="offset" />
          </mxGeometry>
        </mxCell>
        <mxCell id="3GgUyswSTQB4f-KAUnW--29" value="success?" style="rhombus;whiteSpace=wrap;html=1;rounded=0;" parent="WIyWlLk6GJQsqaUBKTNV-1" vertex="1">
          <mxGeometry x="640" y="400" width="80" height="80" as="geometry" />
        </mxCell>
        <mxCell id="3GgUyswSTQB4f-KAUnW--33" style="edgeStyle=orthogonalEdgeStyle;rounded=0;orthogonalLoop=1;jettySize=auto;html=1;entryX=1;entryY=0.5;entryDx=0;entryDy=0;" parent="WIyWlLk6GJQsqaUBKTNV-1" source="3GgUyswSTQB4f-KAUnW--31" target="WIyWlLk6GJQsqaUBKTNV-7" edge="1">
          <mxGeometry relative="1" as="geometry">
            <mxPoint x="130" y="530" as="targetPoint" />
          </mxGeometry>
        </mxCell>
        <mxCell id="3GgUyswSTQB4f-KAUnW--31" value="Show Error" style="whiteSpace=wrap;html=1;rounded=0;" parent="WIyWlLk6GJQsqaUBKTNV-1" vertex="1">
          <mxGeometry x="620" y="550" width="120" height="60" as="geometry" />
        </mxCell>
        <mxCell id="3GgUyswSTQB4f-KAUnW--48" value="" style="edgeStyle=orthogonalEdgeStyle;rounded=0;orthogonalLoop=1;jettySize=auto;html=1;" parent="WIyWlLk6GJQsqaUBKTNV-1" source="3GgUyswSTQB4f-KAUnW--39" target="3GgUyswSTQB4f-KAUnW--47" edge="1">
          <mxGeometry relative="1" as="geometry" />
        </mxCell>
        <mxCell id="3GgUyswSTQB4f-KAUnW--39" value="Response success" style="whiteSpace=wrap;html=1;rounded=0;" parent="WIyWlLk6GJQsqaUBKTNV-1" vertex="1">
          <mxGeometry x="630" y="680" width="120" height="60" as="geometry" />
        </mxCell>
        <mxCell id="3GgUyswSTQB4f-KAUnW--42" value="Response fail" style="whiteSpace=wrap;html=1;rounded=0;" parent="WIyWlLk6GJQsqaUBKTNV-1" vertex="1">
          <mxGeometry x="827" y="810" width="120" height="60" as="geometry" />
        </mxCell>
        <mxCell id="3GgUyswSTQB4f-KAUnW--50" value="" style="edgeStyle=orthogonalEdgeStyle;rounded=0;orthogonalLoop=1;jettySize=auto;html=1;" parent="WIyWlLk6GJQsqaUBKTNV-1" source="3GgUyswSTQB4f-KAUnW--47" target="3GgUyswSTQB4f-KAUnW--49" edge="1">
          <mxGeometry relative="1" as="geometry" />
        </mxCell>
        <mxCell id="3GgUyswSTQB4f-KAUnW--47" value="(FE) Server woker catch notification" style="whiteSpace=wrap;html=1;rounded=0;" parent="WIyWlLk6GJQsqaUBKTNV-1" vertex="1">
          <mxGeometry x="440" y="680" width="120" height="60" as="geometry" />
        </mxCell>
        <mxCell id="3GgUyswSTQB4f-KAUnW--49" value="Show notification" style="whiteSpace=wrap;html=1;rounded=0;" parent="WIyWlLk6GJQsqaUBKTNV-1" vertex="1">
          <mxGeometry x="290" y="680" width="120" height="60" as="geometry" />
        </mxCell>
      </root>
    </mxGraphModel>
  </diagram>
  <diagram id="9F0I03ps6GPZEyr1kK7p" name="get token">
    <mxGraphModel dx="1422" dy="794" grid="1" gridSize="10" guides="1" tooltips="1" connect="1" arrows="1" fold="1" page="1" pageScale="1" pageWidth="850" pageHeight="1100" math="0" shadow="0">
      <root>
        <mxCell id="LteNby4atIZLigeibdcE-0" />
        <mxCell id="LteNby4atIZLigeibdcE-1" parent="LteNby4atIZLigeibdcE-0" />
        <mxCell id="mEORa9vJZl2IbInvXc4i-15" value="&lt;h1&gt;Save token of device to DB&lt;/h1&gt;&lt;div&gt;&lt;br&gt;&lt;/div&gt;" style="text;html=1;strokeColor=none;fillColor=none;spacing=5;spacingTop=-20;whiteSpace=wrap;overflow=hidden;rounded=0;" vertex="1" parent="LteNby4atIZLigeibdcE-1">
          <mxGeometry x="360" y="20" width="190" height="120" as="geometry" />
        </mxCell>
        <mxCell id="mEORa9vJZl2IbInvXc4i-45" value="" style="edgeStyle=orthogonalEdgeStyle;rounded=0;orthogonalLoop=1;jettySize=auto;html=1;" edge="1" parent="LteNby4atIZLigeibdcE-1" source="mEORa9vJZl2IbInvXc4i-43" target="mEORa9vJZl2IbInvXc4i-44">
          <mxGeometry relative="1" as="geometry" />
        </mxCell>
        <mxCell id="mEORa9vJZl2IbInvXc4i-43" value="Loaded web" style="rounded=0;whiteSpace=wrap;html=1;" vertex="1" parent="LteNby4atIZLigeibdcE-1">
          <mxGeometry x="380" y="110" width="120" height="60" as="geometry" />
        </mxCell>
        <mxCell id="mEORa9vJZl2IbInvXc4i-47" value="" style="edgeStyle=orthogonalEdgeStyle;rounded=0;orthogonalLoop=1;jettySize=auto;html=1;" edge="1" parent="LteNby4atIZLigeibdcE-1" source="mEORa9vJZl2IbInvXc4i-44" target="mEORa9vJZl2IbInvXc4i-46">
          <mxGeometry relative="1" as="geometry" />
        </mxCell>
        <mxCell id="mEORa9vJZl2IbInvXc4i-44" value="Get Token/ Get user Topic" style="whiteSpace=wrap;html=1;rounded=0;" vertex="1" parent="LteNby4atIZLigeibdcE-1">
          <mxGeometry x="380" y="190" width="120" height="60" as="geometry" />
        </mxCell>
        <mxCell id="rU2ge5QVdMQtDcgTMPJ--2" value="" style="edgeStyle=orthogonalEdgeStyle;rounded=0;orthogonalLoop=1;jettySize=auto;html=1;" edge="1" parent="LteNby4atIZLigeibdcE-1" source="mEORa9vJZl2IbInvXc4i-46" target="rU2ge5QVdMQtDcgTMPJ--1">
          <mxGeometry relative="1" as="geometry" />
        </mxCell>
        <mxCell id="mEORa9vJZl2IbInvXc4i-46" value="Call API getToken&amp;nbsp;" style="whiteSpace=wrap;html=1;rounded=0;" vertex="1" parent="LteNby4atIZLigeibdcE-1">
          <mxGeometry x="380" y="270" width="120" height="60" as="geometry" />
        </mxCell>
        <mxCell id="rU2ge5QVdMQtDcgTMPJ--4" value="" style="edgeStyle=orthogonalEdgeStyle;rounded=0;orthogonalLoop=1;jettySize=auto;html=1;" edge="1" parent="LteNby4atIZLigeibdcE-1" source="rU2ge5QVdMQtDcgTMPJ--1" target="rU2ge5QVdMQtDcgTMPJ--3">
          <mxGeometry relative="1" as="geometry" />
        </mxCell>
        <mxCell id="rU2ge5QVdMQtDcgTMPJ--7" value="Yes" style="edgeLabel;html=1;align=center;verticalAlign=middle;resizable=0;points=[];" vertex="1" connectable="0" parent="rU2ge5QVdMQtDcgTMPJ--4">
          <mxGeometry x="0.2222" y="-2" relative="1" as="geometry">
            <mxPoint as="offset" />
          </mxGeometry>
        </mxCell>
        <mxCell id="rU2ge5QVdMQtDcgTMPJ--6" value="" style="edgeStyle=orthogonalEdgeStyle;rounded=0;orthogonalLoop=1;jettySize=auto;html=1;" edge="1" parent="LteNby4atIZLigeibdcE-1" source="rU2ge5QVdMQtDcgTMPJ--1" target="rU2ge5QVdMQtDcgTMPJ--5">
          <mxGeometry relative="1" as="geometry" />
        </mxCell>
        <mxCell id="rU2ge5QVdMQtDcgTMPJ--8" value="No" style="edgeLabel;html=1;align=center;verticalAlign=middle;resizable=0;points=[];" vertex="1" connectable="0" parent="rU2ge5QVdMQtDcgTMPJ--6">
          <mxGeometry x="-0.2222" y="-1" relative="1" as="geometry">
            <mxPoint as="offset" />
          </mxGeometry>
        </mxCell>
        <mxCell id="rU2ge5QVdMQtDcgTMPJ--1" value="Is Duplicate?" style="rhombus;whiteSpace=wrap;html=1;rounded=0;" vertex="1" parent="LteNby4atIZLigeibdcE-1">
          <mxGeometry x="390" y="395" width="100" height="90" as="geometry" />
        </mxCell>
        <mxCell id="rU2ge5QVdMQtDcgTMPJ--3" value="Don&#39; save" style="whiteSpace=wrap;html=1;rounded=0;" vertex="1" parent="LteNby4atIZLigeibdcE-1">
          <mxGeometry x="210" y="410" width="120" height="60" as="geometry" />
        </mxCell>
        <mxCell id="rU2ge5QVdMQtDcgTMPJ--5" value="Save" style="whiteSpace=wrap;html=1;rounded=0;" vertex="1" parent="LteNby4atIZLigeibdcE-1">
          <mxGeometry x="540" y="410" width="120" height="60" as="geometry" />
        </mxCell>
      </root>
    </mxGraphModel>
  </diagram>
  <diagram id="QK4rAc92_0JsybBtYghp" name="subscribe to Topic">
    <mxGraphModel dx="1422" dy="794" grid="1" gridSize="10" guides="1" tooltips="1" connect="1" arrows="1" fold="1" page="1" pageScale="1" pageWidth="850" pageHeight="1100" math="0" shadow="0">
      <root>
        <mxCell id="gzXGCRXXAEPuSsspGtP_-0" />
        <mxCell id="gzXGCRXXAEPuSsspGtP_-1" parent="gzXGCRXXAEPuSsspGtP_-0" />
        <mxCell id="IMxIfMd4JCoV7bYBCmZq-0" value="" style="edgeStyle=orthogonalEdgeStyle;rounded=0;orthogonalLoop=1;jettySize=auto;html=1;" edge="1" parent="gzXGCRXXAEPuSsspGtP_-1" source="IMxIfMd4JCoV7bYBCmZq-1" target="IMxIfMd4JCoV7bYBCmZq-9">
          <mxGeometry relative="1" as="geometry" />
        </mxCell>
        <mxCell id="IMxIfMd4JCoV7bYBCmZq-1" value="btn click subscribe" style="rounded=1;whiteSpace=wrap;html=1;fontSize=12;glass=0;strokeWidth=1;shadow=0;" vertex="1" parent="gzXGCRXXAEPuSsspGtP_-1">
          <mxGeometry x="580" y="320" width="120" height="40" as="geometry" />
        </mxCell>
        <mxCell id="IMxIfMd4JCoV7bYBCmZq-2" value="No" style="edgeStyle=orthogonalEdgeStyle;rounded=0;html=1;jettySize=auto;orthogonalLoop=1;fontSize=11;endArrow=block;endFill=0;endSize=8;strokeWidth=1;shadow=0;labelBackgroundColor=none;entryX=0.5;entryY=0;entryDx=0;entryDy=0;" edge="1" parent="gzXGCRXXAEPuSsspGtP_-1" source="IMxIfMd4JCoV7bYBCmZq-5" target="IMxIfMd4JCoV7bYBCmZq-7">
          <mxGeometry y="10" relative="1" as="geometry">
            <mxPoint as="offset" />
            <mxPoint x="550" y="340" as="targetPoint" />
          </mxGeometry>
        </mxCell>
        <mxCell id="IMxIfMd4JCoV7bYBCmZq-3" value="" style="edgeStyle=orthogonalEdgeStyle;rounded=0;orthogonalLoop=1;jettySize=auto;html=1;" edge="1" parent="gzXGCRXXAEPuSsspGtP_-1" source="IMxIfMd4JCoV7bYBCmZq-5" target="IMxIfMd4JCoV7bYBCmZq-16">
          <mxGeometry relative="1" as="geometry">
            <Array as="points">
              <mxPoint x="220" y="440" />
              <mxPoint x="220" y="440" />
            </Array>
          </mxGeometry>
        </mxCell>
        <mxCell id="IMxIfMd4JCoV7bYBCmZq-4" value="Yes" style="edgeLabel;html=1;align=center;verticalAlign=middle;resizable=0;points=[];" vertex="1" connectable="0" parent="IMxIfMd4JCoV7bYBCmZq-3">
          <mxGeometry x="-0.2982" y="2" relative="1" as="geometry">
            <mxPoint as="offset" />
          </mxGeometry>
        </mxCell>
        <mxCell id="IMxIfMd4JCoV7bYBCmZq-5" value="Submit/Cancel" style="rhombus;whiteSpace=wrap;html=1;shadow=0;fontFamily=Helvetica;fontSize=12;align=center;strokeWidth=1;spacing=6;spacingTop=-4;" vertex="1" parent="gzXGCRXXAEPuSsspGtP_-1">
          <mxGeometry x="80" y="400" width="100" height="80" as="geometry" />
        </mxCell>
        <mxCell id="IMxIfMd4JCoV7bYBCmZq-6" value="" style="edgeStyle=orthogonalEdgeStyle;rounded=0;orthogonalLoop=1;jettySize=auto;html=1;" edge="1" parent="gzXGCRXXAEPuSsspGtP_-1" source="IMxIfMd4JCoV7bYBCmZq-7" target="IMxIfMd4JCoV7bYBCmZq-14">
          <mxGeometry relative="1" as="geometry" />
        </mxCell>
        <mxCell id="IMxIfMd4JCoV7bYBCmZq-7" value="Reset form" style="rounded=1;whiteSpace=wrap;html=1;fontSize=12;glass=0;strokeWidth=1;shadow=0;" vertex="1" parent="gzXGCRXXAEPuSsspGtP_-1">
          <mxGeometry x="70" y="560" width="120" height="40" as="geometry" />
        </mxCell>
        <mxCell id="IMxIfMd4JCoV7bYBCmZq-8" value="" style="edgeStyle=orthogonalEdgeStyle;rounded=0;orthogonalLoop=1;jettySize=auto;html=1;" edge="1" parent="gzXGCRXXAEPuSsspGtP_-1" source="IMxIfMd4JCoV7bYBCmZq-9" target="IMxIfMd4JCoV7bYBCmZq-11">
          <mxGeometry relative="1" as="geometry" />
        </mxCell>
        <mxCell id="IMxIfMd4JCoV7bYBCmZq-9" value="Show modal" style="rounded=0;whiteSpace=wrap;html=1;" vertex="1" parent="gzXGCRXXAEPuSsspGtP_-1">
          <mxGeometry x="414" y="310" width="120" height="60" as="geometry" />
        </mxCell>
        <mxCell id="IMxIfMd4JCoV7bYBCmZq-10" value="" style="edgeStyle=orthogonalEdgeStyle;rounded=0;orthogonalLoop=1;jettySize=auto;html=1;" edge="1" parent="gzXGCRXXAEPuSsspGtP_-1" source="IMxIfMd4JCoV7bYBCmZq-11" target="IMxIfMd4JCoV7bYBCmZq-13">
          <mxGeometry relative="1" as="geometry" />
        </mxCell>
        <mxCell id="IMxIfMd4JCoV7bYBCmZq-11" value="Input data/ select topic" style="rounded=0;whiteSpace=wrap;html=1;" vertex="1" parent="gzXGCRXXAEPuSsspGtP_-1">
          <mxGeometry x="230" y="310" width="120" height="60" as="geometry" />
        </mxCell>
        <mxCell id="IMxIfMd4JCoV7bYBCmZq-12" style="edgeStyle=orthogonalEdgeStyle;rounded=0;orthogonalLoop=1;jettySize=auto;html=1;" edge="1" parent="gzXGCRXXAEPuSsspGtP_-1" source="IMxIfMd4JCoV7bYBCmZq-13" target="IMxIfMd4JCoV7bYBCmZq-5">
          <mxGeometry relative="1" as="geometry" />
        </mxCell>
        <mxCell id="IMxIfMd4JCoV7bYBCmZq-13" value="User action" style="rounded=0;whiteSpace=wrap;html=1;" vertex="1" parent="gzXGCRXXAEPuSsspGtP_-1">
          <mxGeometry x="70" y="310" width="120" height="60" as="geometry" />
        </mxCell>
        <mxCell id="IMxIfMd4JCoV7bYBCmZq-14" value="Hide modal" style="rounded=1;whiteSpace=wrap;html=1;fontSize=12;glass=0;strokeWidth=1;shadow=0;" vertex="1" parent="gzXGCRXXAEPuSsspGtP_-1">
          <mxGeometry x="70" y="650" width="120" height="40" as="geometry" />
        </mxCell>
        <mxCell id="IMxIfMd4JCoV7bYBCmZq-15" value="" style="edgeStyle=orthogonalEdgeStyle;rounded=0;orthogonalLoop=1;jettySize=auto;html=1;" edge="1" parent="gzXGCRXXAEPuSsspGtP_-1" source="IMxIfMd4JCoV7bYBCmZq-16" target="IMxIfMd4JCoV7bYBCmZq-18">
          <mxGeometry relative="1" as="geometry" />
        </mxCell>
        <mxCell id="IMxIfMd4JCoV7bYBCmZq-16" value="Validated feild" style="rounded=0;whiteSpace=wrap;html=1;" vertex="1" parent="gzXGCRXXAEPuSsspGtP_-1">
          <mxGeometry x="294" y="410" width="120" height="60" as="geometry" />
        </mxCell>
        <mxCell id="IMxIfMd4JCoV7bYBCmZq-17" value="" style="edgeStyle=orthogonalEdgeStyle;rounded=0;orthogonalLoop=1;jettySize=auto;html=1;" edge="1" parent="gzXGCRXXAEPuSsspGtP_-1" source="IMxIfMd4JCoV7bYBCmZq-18" target="IMxIfMd4JCoV7bYBCmZq-33">
          <mxGeometry relative="1" as="geometry" />
        </mxCell>
        <mxCell id="IMxIfMd4JCoV7bYBCmZq-18" value="Call API subscribe topic" style="whiteSpace=wrap;html=1;rounded=0;" vertex="1" parent="gzXGCRXXAEPuSsspGtP_-1">
          <mxGeometry x="480" y="410" width="120" height="60" as="geometry" />
        </mxCell>
        <mxCell id="IMxIfMd4JCoV7bYBCmZq-19" value="" style="edgeStyle=orthogonalEdgeStyle;rounded=0;orthogonalLoop=1;jettySize=auto;html=1;" edge="1" parent="gzXGCRXXAEPuSsspGtP_-1" source="IMxIfMd4JCoV7bYBCmZq-21" target="IMxIfMd4JCoV7bYBCmZq-23">
          <mxGeometry relative="1" as="geometry" />
        </mxCell>
        <mxCell id="IMxIfMd4JCoV7bYBCmZq-20" value="Response" style="edgeLabel;html=1;align=center;verticalAlign=middle;resizable=0;points=[];" vertex="1" connectable="0" parent="IMxIfMd4JCoV7bYBCmZq-19">
          <mxGeometry x="-0.1714" y="1" relative="1" as="geometry">
            <mxPoint as="offset" />
          </mxGeometry>
        </mxCell>
        <mxCell id="IMxIfMd4JCoV7bYBCmZq-21" value="Push data to firebase server" style="whiteSpace=wrap;html=1;rounded=0;" vertex="1" parent="gzXGCRXXAEPuSsspGtP_-1">
          <mxGeometry x="827" y="410" width="120" height="60" as="geometry" />
        </mxCell>
        <mxCell id="IMxIfMd4JCoV7bYBCmZq-22" value="" style="edgeStyle=orthogonalEdgeStyle;rounded=0;orthogonalLoop=1;jettySize=auto;html=1;" edge="1" parent="gzXGCRXXAEPuSsspGtP_-1" source="IMxIfMd4JCoV7bYBCmZq-23" target="IMxIfMd4JCoV7bYBCmZq-28">
          <mxGeometry relative="1" as="geometry" />
        </mxCell>
        <mxCell id="IMxIfMd4JCoV7bYBCmZq-23" value="Firebase save devices (tokens) with topic" style="whiteSpace=wrap;html=1;rounded=0;" vertex="1" parent="gzXGCRXXAEPuSsspGtP_-1">
          <mxGeometry x="827" y="560" width="120" height="60" as="geometry" />
        </mxCell>
        <mxCell id="IMxIfMd4JCoV7bYBCmZq-24" value="" style="edgeStyle=orthogonalEdgeStyle;rounded=0;orthogonalLoop=1;jettySize=auto;html=1;" edge="1" parent="gzXGCRXXAEPuSsspGtP_-1" source="IMxIfMd4JCoV7bYBCmZq-28" target="IMxIfMd4JCoV7bYBCmZq-37">
          <mxGeometry relative="1" as="geometry" />
        </mxCell>
        <mxCell id="IMxIfMd4JCoV7bYBCmZq-25" value="Yes" style="edgeLabel;html=1;align=center;verticalAlign=middle;resizable=0;points=[];" vertex="1" connectable="0" parent="IMxIfMd4JCoV7bYBCmZq-24">
          <mxGeometry x="-0.1647" y="2" relative="1" as="geometry">
            <mxPoint as="offset" />
          </mxGeometry>
        </mxCell>
        <mxCell id="IMxIfMd4JCoV7bYBCmZq-26" value="" style="edgeStyle=orthogonalEdgeStyle;rounded=0;orthogonalLoop=1;jettySize=auto;html=1;" edge="1" parent="gzXGCRXXAEPuSsspGtP_-1" source="IMxIfMd4JCoV7bYBCmZq-28" target="IMxIfMd4JCoV7bYBCmZq-38">
          <mxGeometry relative="1" as="geometry" />
        </mxCell>
        <mxCell id="IMxIfMd4JCoV7bYBCmZq-27" value="No" style="edgeLabel;html=1;align=center;verticalAlign=middle;resizable=0;points=[];" vertex="1" connectable="0" parent="IMxIfMd4JCoV7bYBCmZq-26">
          <mxGeometry x="-0.2444" y="-2" relative="1" as="geometry">
            <mxPoint as="offset" />
          </mxGeometry>
        </mxCell>
        <mxCell id="IMxIfMd4JCoV7bYBCmZq-28" value="success/fail" style="rhombus;whiteSpace=wrap;html=1;rounded=0;" vertex="1" parent="gzXGCRXXAEPuSsspGtP_-1">
          <mxGeometry x="847" y="670" width="80" height="80" as="geometry" />
        </mxCell>
        <mxCell id="IMxIfMd4JCoV7bYBCmZq-29" value="" style="edgeStyle=orthogonalEdgeStyle;rounded=0;orthogonalLoop=1;jettySize=auto;html=1;entryX=0.5;entryY=0;entryDx=0;entryDy=0;" edge="1" parent="gzXGCRXXAEPuSsspGtP_-1" source="IMxIfMd4JCoV7bYBCmZq-33" target="IMxIfMd4JCoV7bYBCmZq-35">
          <mxGeometry relative="1" as="geometry">
            <Array as="points">
              <mxPoint x="680" y="530" />
              <mxPoint x="680" y="530" />
            </Array>
          </mxGeometry>
        </mxCell>
        <mxCell id="IMxIfMd4JCoV7bYBCmZq-30" value="No" style="edgeLabel;html=1;align=center;verticalAlign=middle;resizable=0;points=[];" vertex="1" connectable="0" parent="IMxIfMd4JCoV7bYBCmZq-29">
          <mxGeometry x="-0.1273" y="-1" relative="1" as="geometry">
            <mxPoint as="offset" />
          </mxGeometry>
        </mxCell>
        <mxCell id="IMxIfMd4JCoV7bYBCmZq-31" value="" style="edgeStyle=orthogonalEdgeStyle;rounded=0;orthogonalLoop=1;jettySize=auto;html=1;" edge="1" parent="gzXGCRXXAEPuSsspGtP_-1" source="IMxIfMd4JCoV7bYBCmZq-33" target="IMxIfMd4JCoV7bYBCmZq-21">
          <mxGeometry relative="1" as="geometry">
            <mxPoint x="640" y="545" as="targetPoint" />
          </mxGeometry>
        </mxCell>
        <mxCell id="IMxIfMd4JCoV7bYBCmZq-32" value="Yes" style="edgeLabel;html=1;align=center;verticalAlign=middle;resizable=0;points=[];" vertex="1" connectable="0" parent="IMxIfMd4JCoV7bYBCmZq-31">
          <mxGeometry x="-0.271" y="-2" relative="1" as="geometry">
            <mxPoint as="offset" />
          </mxGeometry>
        </mxCell>
        <mxCell id="IMxIfMd4JCoV7bYBCmZq-33" value="success?" style="rhombus;whiteSpace=wrap;html=1;rounded=0;" vertex="1" parent="gzXGCRXXAEPuSsspGtP_-1">
          <mxGeometry x="640" y="400" width="80" height="80" as="geometry" />
        </mxCell>
        <mxCell id="IMxIfMd4JCoV7bYBCmZq-34" style="edgeStyle=orthogonalEdgeStyle;rounded=0;orthogonalLoop=1;jettySize=auto;html=1;entryX=1;entryY=0.5;entryDx=0;entryDy=0;" edge="1" parent="gzXGCRXXAEPuSsspGtP_-1" source="IMxIfMd4JCoV7bYBCmZq-35" target="IMxIfMd4JCoV7bYBCmZq-7">
          <mxGeometry relative="1" as="geometry">
            <mxPoint x="130" y="530" as="targetPoint" />
          </mxGeometry>
        </mxCell>
        <mxCell id="IMxIfMd4JCoV7bYBCmZq-35" value="Show Error" style="whiteSpace=wrap;html=1;rounded=0;" vertex="1" parent="gzXGCRXXAEPuSsspGtP_-1">
          <mxGeometry x="620" y="550" width="120" height="60" as="geometry" />
        </mxCell>
        <mxCell id="IMxIfMd4JCoV7bYBCmZq-37" value="Response success" style="whiteSpace=wrap;html=1;rounded=0;" vertex="1" parent="gzXGCRXXAEPuSsspGtP_-1">
          <mxGeometry x="630" y="680" width="120" height="60" as="geometry" />
        </mxCell>
        <mxCell id="IMxIfMd4JCoV7bYBCmZq-38" value="Response fail" style="whiteSpace=wrap;html=1;rounded=0;" vertex="1" parent="gzXGCRXXAEPuSsspGtP_-1">
          <mxGeometry x="827" y="810" width="120" height="60" as="geometry" />
        </mxCell>
        <mxCell id="IMxIfMd4JCoV7bYBCmZq-43" value="&lt;h1&gt;Subscribe devices to topic&lt;/h1&gt;" style="text;html=1;strokeColor=none;fillColor=none;spacing=5;spacingTop=-20;whiteSpace=wrap;overflow=hidden;rounded=0;" vertex="1" parent="gzXGCRXXAEPuSsspGtP_-1">
          <mxGeometry x="294" y="210" width="190" height="120" as="geometry" />
        </mxCell>
      </root>
    </mxGraphModel>
  </diagram>
  <diagram id="DLuV62XY8MdfpGM7MPSB" name="unsubscribe to topic">
    <mxGraphModel dx="1422" dy="794" grid="1" gridSize="10" guides="1" tooltips="1" connect="1" arrows="1" fold="1" page="1" pageScale="1" pageWidth="850" pageHeight="1100" math="0" shadow="0">
      <root>
        <mxCell id="Ry5AQlB0dyJarnTXBPvI-0" />
        <mxCell id="Ry5AQlB0dyJarnTXBPvI-1" parent="Ry5AQlB0dyJarnTXBPvI-0" />
        <mxCell id="o2WnVcJJifrCUZZd4AfY-0" value="" style="edgeStyle=orthogonalEdgeStyle;rounded=0;orthogonalLoop=1;jettySize=auto;html=1;" edge="1" parent="Ry5AQlB0dyJarnTXBPvI-1" source="o2WnVcJJifrCUZZd4AfY-1" target="o2WnVcJJifrCUZZd4AfY-9">
          <mxGeometry relative="1" as="geometry" />
        </mxCell>
        <mxCell id="o2WnVcJJifrCUZZd4AfY-1" value="btn click unsubscribe" style="rounded=1;whiteSpace=wrap;html=1;fontSize=12;glass=0;strokeWidth=1;shadow=0;" vertex="1" parent="Ry5AQlB0dyJarnTXBPvI-1">
          <mxGeometry x="580" y="320" width="120" height="40" as="geometry" />
        </mxCell>
        <mxCell id="o2WnVcJJifrCUZZd4AfY-2" value="No" style="edgeStyle=orthogonalEdgeStyle;rounded=0;html=1;jettySize=auto;orthogonalLoop=1;fontSize=11;endArrow=block;endFill=0;endSize=8;strokeWidth=1;shadow=0;labelBackgroundColor=none;entryX=0.5;entryY=0;entryDx=0;entryDy=0;" edge="1" parent="Ry5AQlB0dyJarnTXBPvI-1" source="o2WnVcJJifrCUZZd4AfY-5" target="o2WnVcJJifrCUZZd4AfY-7">
          <mxGeometry y="10" relative="1" as="geometry">
            <mxPoint as="offset" />
            <mxPoint x="550" y="340" as="targetPoint" />
          </mxGeometry>
        </mxCell>
        <mxCell id="o2WnVcJJifrCUZZd4AfY-3" value="" style="edgeStyle=orthogonalEdgeStyle;rounded=0;orthogonalLoop=1;jettySize=auto;html=1;" edge="1" parent="Ry5AQlB0dyJarnTXBPvI-1" source="o2WnVcJJifrCUZZd4AfY-5" target="o2WnVcJJifrCUZZd4AfY-16">
          <mxGeometry relative="1" as="geometry">
            <Array as="points">
              <mxPoint x="220" y="440" />
              <mxPoint x="220" y="440" />
            </Array>
          </mxGeometry>
        </mxCell>
        <mxCell id="o2WnVcJJifrCUZZd4AfY-4" value="Yes" style="edgeLabel;html=1;align=center;verticalAlign=middle;resizable=0;points=[];" vertex="1" connectable="0" parent="o2WnVcJJifrCUZZd4AfY-3">
          <mxGeometry x="-0.2982" y="2" relative="1" as="geometry">
            <mxPoint as="offset" />
          </mxGeometry>
        </mxCell>
        <mxCell id="o2WnVcJJifrCUZZd4AfY-5" value="Submit/Cancel" style="rhombus;whiteSpace=wrap;html=1;shadow=0;fontFamily=Helvetica;fontSize=12;align=center;strokeWidth=1;spacing=6;spacingTop=-4;" vertex="1" parent="Ry5AQlB0dyJarnTXBPvI-1">
          <mxGeometry x="80" y="400" width="100" height="80" as="geometry" />
        </mxCell>
        <mxCell id="o2WnVcJJifrCUZZd4AfY-6" value="" style="edgeStyle=orthogonalEdgeStyle;rounded=0;orthogonalLoop=1;jettySize=auto;html=1;" edge="1" parent="Ry5AQlB0dyJarnTXBPvI-1" source="o2WnVcJJifrCUZZd4AfY-7" target="o2WnVcJJifrCUZZd4AfY-14">
          <mxGeometry relative="1" as="geometry" />
        </mxCell>
        <mxCell id="o2WnVcJJifrCUZZd4AfY-7" value="Reset form" style="rounded=1;whiteSpace=wrap;html=1;fontSize=12;glass=0;strokeWidth=1;shadow=0;" vertex="1" parent="Ry5AQlB0dyJarnTXBPvI-1">
          <mxGeometry x="70" y="560" width="120" height="40" as="geometry" />
        </mxCell>
        <mxCell id="o2WnVcJJifrCUZZd4AfY-8" value="" style="edgeStyle=orthogonalEdgeStyle;rounded=0;orthogonalLoop=1;jettySize=auto;html=1;" edge="1" parent="Ry5AQlB0dyJarnTXBPvI-1" source="o2WnVcJJifrCUZZd4AfY-9" target="o2WnVcJJifrCUZZd4AfY-11">
          <mxGeometry relative="1" as="geometry" />
        </mxCell>
        <mxCell id="o2WnVcJJifrCUZZd4AfY-9" value="Show modal" style="rounded=0;whiteSpace=wrap;html=1;" vertex="1" parent="Ry5AQlB0dyJarnTXBPvI-1">
          <mxGeometry x="414" y="310" width="120" height="60" as="geometry" />
        </mxCell>
        <mxCell id="o2WnVcJJifrCUZZd4AfY-10" value="" style="edgeStyle=orthogonalEdgeStyle;rounded=0;orthogonalLoop=1;jettySize=auto;html=1;" edge="1" parent="Ry5AQlB0dyJarnTXBPvI-1" source="o2WnVcJJifrCUZZd4AfY-11" target="o2WnVcJJifrCUZZd4AfY-13">
          <mxGeometry relative="1" as="geometry" />
        </mxCell>
        <mxCell id="o2WnVcJJifrCUZZd4AfY-11" value="Input data/ select topic" style="rounded=0;whiteSpace=wrap;html=1;" vertex="1" parent="Ry5AQlB0dyJarnTXBPvI-1">
          <mxGeometry x="230" y="310" width="120" height="60" as="geometry" />
        </mxCell>
        <mxCell id="o2WnVcJJifrCUZZd4AfY-12" style="edgeStyle=orthogonalEdgeStyle;rounded=0;orthogonalLoop=1;jettySize=auto;html=1;" edge="1" parent="Ry5AQlB0dyJarnTXBPvI-1" source="o2WnVcJJifrCUZZd4AfY-13" target="o2WnVcJJifrCUZZd4AfY-5">
          <mxGeometry relative="1" as="geometry" />
        </mxCell>
        <mxCell id="o2WnVcJJifrCUZZd4AfY-13" value="User action" style="rounded=0;whiteSpace=wrap;html=1;" vertex="1" parent="Ry5AQlB0dyJarnTXBPvI-1">
          <mxGeometry x="70" y="310" width="120" height="60" as="geometry" />
        </mxCell>
        <mxCell id="o2WnVcJJifrCUZZd4AfY-14" value="Hide modal" style="rounded=1;whiteSpace=wrap;html=1;fontSize=12;glass=0;strokeWidth=1;shadow=0;" vertex="1" parent="Ry5AQlB0dyJarnTXBPvI-1">
          <mxGeometry x="70" y="650" width="120" height="40" as="geometry" />
        </mxCell>
        <mxCell id="o2WnVcJJifrCUZZd4AfY-15" value="" style="edgeStyle=orthogonalEdgeStyle;rounded=0;orthogonalLoop=1;jettySize=auto;html=1;" edge="1" parent="Ry5AQlB0dyJarnTXBPvI-1" source="o2WnVcJJifrCUZZd4AfY-16" target="o2WnVcJJifrCUZZd4AfY-18">
          <mxGeometry relative="1" as="geometry" />
        </mxCell>
        <mxCell id="o2WnVcJJifrCUZZd4AfY-16" value="Validated feild" style="rounded=0;whiteSpace=wrap;html=1;" vertex="1" parent="Ry5AQlB0dyJarnTXBPvI-1">
          <mxGeometry x="294" y="410" width="120" height="60" as="geometry" />
        </mxCell>
        <mxCell id="o2WnVcJJifrCUZZd4AfY-17" value="" style="edgeStyle=orthogonalEdgeStyle;rounded=0;orthogonalLoop=1;jettySize=auto;html=1;" edge="1" parent="Ry5AQlB0dyJarnTXBPvI-1" source="o2WnVcJJifrCUZZd4AfY-18" target="o2WnVcJJifrCUZZd4AfY-33">
          <mxGeometry relative="1" as="geometry" />
        </mxCell>
        <mxCell id="o2WnVcJJifrCUZZd4AfY-18" value="Call API unsubscribe topic" style="whiteSpace=wrap;html=1;rounded=0;" vertex="1" parent="Ry5AQlB0dyJarnTXBPvI-1">
          <mxGeometry x="480" y="410" width="120" height="60" as="geometry" />
        </mxCell>
        <mxCell id="o2WnVcJJifrCUZZd4AfY-19" value="" style="edgeStyle=orthogonalEdgeStyle;rounded=0;orthogonalLoop=1;jettySize=auto;html=1;" edge="1" parent="Ry5AQlB0dyJarnTXBPvI-1" source="o2WnVcJJifrCUZZd4AfY-21" target="o2WnVcJJifrCUZZd4AfY-23">
          <mxGeometry relative="1" as="geometry" />
        </mxCell>
        <mxCell id="o2WnVcJJifrCUZZd4AfY-20" value="Response" style="edgeLabel;html=1;align=center;verticalAlign=middle;resizable=0;points=[];" vertex="1" connectable="0" parent="o2WnVcJJifrCUZZd4AfY-19">
          <mxGeometry x="-0.1714" y="1" relative="1" as="geometry">
            <mxPoint as="offset" />
          </mxGeometry>
        </mxCell>
        <mxCell id="o2WnVcJJifrCUZZd4AfY-21" value="Push data to firebase server" style="whiteSpace=wrap;html=1;rounded=0;" vertex="1" parent="Ry5AQlB0dyJarnTXBPvI-1">
          <mxGeometry x="827" y="410" width="120" height="60" as="geometry" />
        </mxCell>
        <mxCell id="o2WnVcJJifrCUZZd4AfY-22" value="" style="edgeStyle=orthogonalEdgeStyle;rounded=0;orthogonalLoop=1;jettySize=auto;html=1;" edge="1" parent="Ry5AQlB0dyJarnTXBPvI-1" source="o2WnVcJJifrCUZZd4AfY-23" target="o2WnVcJJifrCUZZd4AfY-28">
          <mxGeometry relative="1" as="geometry" />
        </mxCell>
        <mxCell id="o2WnVcJJifrCUZZd4AfY-23" value="Firebase remove devices (tokens) with topic" style="whiteSpace=wrap;html=1;rounded=0;" vertex="1" parent="Ry5AQlB0dyJarnTXBPvI-1">
          <mxGeometry x="827" y="560" width="120" height="60" as="geometry" />
        </mxCell>
        <mxCell id="o2WnVcJJifrCUZZd4AfY-24" value="" style="edgeStyle=orthogonalEdgeStyle;rounded=0;orthogonalLoop=1;jettySize=auto;html=1;" edge="1" parent="Ry5AQlB0dyJarnTXBPvI-1" source="o2WnVcJJifrCUZZd4AfY-28" target="o2WnVcJJifrCUZZd4AfY-36">
          <mxGeometry relative="1" as="geometry" />
        </mxCell>
        <mxCell id="o2WnVcJJifrCUZZd4AfY-25" value="Yes" style="edgeLabel;html=1;align=center;verticalAlign=middle;resizable=0;points=[];" vertex="1" connectable="0" parent="o2WnVcJJifrCUZZd4AfY-24">
          <mxGeometry x="-0.1647" y="2" relative="1" as="geometry">
            <mxPoint as="offset" />
          </mxGeometry>
        </mxCell>
        <mxCell id="o2WnVcJJifrCUZZd4AfY-26" value="" style="edgeStyle=orthogonalEdgeStyle;rounded=0;orthogonalLoop=1;jettySize=auto;html=1;" edge="1" parent="Ry5AQlB0dyJarnTXBPvI-1" source="o2WnVcJJifrCUZZd4AfY-28" target="o2WnVcJJifrCUZZd4AfY-37">
          <mxGeometry relative="1" as="geometry" />
        </mxCell>
        <mxCell id="o2WnVcJJifrCUZZd4AfY-27" value="No" style="edgeLabel;html=1;align=center;verticalAlign=middle;resizable=0;points=[];" vertex="1" connectable="0" parent="o2WnVcJJifrCUZZd4AfY-26">
          <mxGeometry x="-0.2444" y="-2" relative="1" as="geometry">
            <mxPoint as="offset" />
          </mxGeometry>
        </mxCell>
        <mxCell id="o2WnVcJJifrCUZZd4AfY-28" value="success/fail" style="rhombus;whiteSpace=wrap;html=1;rounded=0;" vertex="1" parent="Ry5AQlB0dyJarnTXBPvI-1">
          <mxGeometry x="847" y="670" width="80" height="80" as="geometry" />
        </mxCell>
        <mxCell id="o2WnVcJJifrCUZZd4AfY-29" value="" style="edgeStyle=orthogonalEdgeStyle;rounded=0;orthogonalLoop=1;jettySize=auto;html=1;entryX=0.5;entryY=0;entryDx=0;entryDy=0;" edge="1" parent="Ry5AQlB0dyJarnTXBPvI-1" source="o2WnVcJJifrCUZZd4AfY-33" target="o2WnVcJJifrCUZZd4AfY-35">
          <mxGeometry relative="1" as="geometry">
            <Array as="points">
              <mxPoint x="680" y="530" />
              <mxPoint x="680" y="530" />
            </Array>
          </mxGeometry>
        </mxCell>
        <mxCell id="o2WnVcJJifrCUZZd4AfY-30" value="No" style="edgeLabel;html=1;align=center;verticalAlign=middle;resizable=0;points=[];" vertex="1" connectable="0" parent="o2WnVcJJifrCUZZd4AfY-29">
          <mxGeometry x="-0.1273" y="-1" relative="1" as="geometry">
            <mxPoint as="offset" />
          </mxGeometry>
        </mxCell>
        <mxCell id="o2WnVcJJifrCUZZd4AfY-31" value="" style="edgeStyle=orthogonalEdgeStyle;rounded=0;orthogonalLoop=1;jettySize=auto;html=1;" edge="1" parent="Ry5AQlB0dyJarnTXBPvI-1" source="o2WnVcJJifrCUZZd4AfY-33" target="o2WnVcJJifrCUZZd4AfY-21">
          <mxGeometry relative="1" as="geometry">
            <mxPoint x="640" y="545" as="targetPoint" />
          </mxGeometry>
        </mxCell>
        <mxCell id="o2WnVcJJifrCUZZd4AfY-32" value="Yes" style="edgeLabel;html=1;align=center;verticalAlign=middle;resizable=0;points=[];" vertex="1" connectable="0" parent="o2WnVcJJifrCUZZd4AfY-31">
          <mxGeometry x="-0.271" y="-2" relative="1" as="geometry">
            <mxPoint as="offset" />
          </mxGeometry>
        </mxCell>
        <mxCell id="o2WnVcJJifrCUZZd4AfY-33" value="success?" style="rhombus;whiteSpace=wrap;html=1;rounded=0;" vertex="1" parent="Ry5AQlB0dyJarnTXBPvI-1">
          <mxGeometry x="640" y="400" width="80" height="80" as="geometry" />
        </mxCell>
        <mxCell id="o2WnVcJJifrCUZZd4AfY-34" style="edgeStyle=orthogonalEdgeStyle;rounded=0;orthogonalLoop=1;jettySize=auto;html=1;entryX=1;entryY=0.5;entryDx=0;entryDy=0;" edge="1" parent="Ry5AQlB0dyJarnTXBPvI-1" source="o2WnVcJJifrCUZZd4AfY-35" target="o2WnVcJJifrCUZZd4AfY-7">
          <mxGeometry relative="1" as="geometry">
            <mxPoint x="130" y="530" as="targetPoint" />
          </mxGeometry>
        </mxCell>
        <mxCell id="o2WnVcJJifrCUZZd4AfY-35" value="Show Error" style="whiteSpace=wrap;html=1;rounded=0;" vertex="1" parent="Ry5AQlB0dyJarnTXBPvI-1">
          <mxGeometry x="620" y="550" width="120" height="60" as="geometry" />
        </mxCell>
        <mxCell id="o2WnVcJJifrCUZZd4AfY-36" value="Response success" style="whiteSpace=wrap;html=1;rounded=0;" vertex="1" parent="Ry5AQlB0dyJarnTXBPvI-1">
          <mxGeometry x="630" y="680" width="120" height="60" as="geometry" />
        </mxCell>
        <mxCell id="o2WnVcJJifrCUZZd4AfY-37" value="Response fail" style="whiteSpace=wrap;html=1;rounded=0;" vertex="1" parent="Ry5AQlB0dyJarnTXBPvI-1">
          <mxGeometry x="827" y="810" width="120" height="60" as="geometry" />
        </mxCell>
        <mxCell id="o2WnVcJJifrCUZZd4AfY-38" value="&lt;h1&gt;Unsubscribe devices to topic&lt;/h1&gt;" style="text;html=1;strokeColor=none;fillColor=none;spacing=5;spacingTop=-20;whiteSpace=wrap;overflow=hidden;rounded=0;" vertex="1" parent="Ry5AQlB0dyJarnTXBPvI-1">
          <mxGeometry x="294" y="210" width="190" height="120" as="geometry" />
        </mxCell>
      </root>
    </mxGraphModel>
  </diagram>
  <diagram id="EGm6qFJq_h-mT5COg1JX" name="to topic">
    <mxGraphModel dx="1422" dy="794" grid="1" gridSize="10" guides="1" tooltips="1" connect="1" arrows="1" fold="1" page="1" pageScale="1" pageWidth="850" pageHeight="1100" math="0" shadow="0">
      <root>
        <mxCell id="fEP0hPGFHoccFa9mInhL-0" />
        <mxCell id="fEP0hPGFHoccFa9mInhL-1" parent="fEP0hPGFHoccFa9mInhL-0" />
        <mxCell id="fEP0hPGFHoccFa9mInhL-2" value="" style="edgeStyle=orthogonalEdgeStyle;rounded=0;orthogonalLoop=1;jettySize=auto;html=1;" edge="1" parent="fEP0hPGFHoccFa9mInhL-1" source="fEP0hPGFHoccFa9mInhL-3" target="fEP0hPGFHoccFa9mInhL-11">
          <mxGeometry relative="1" as="geometry" />
        </mxCell>
        <mxCell id="fEP0hPGFHoccFa9mInhL-3" value="btn click subscribe" style="rounded=1;whiteSpace=wrap;html=1;fontSize=12;glass=0;strokeWidth=1;shadow=0;" vertex="1" parent="fEP0hPGFHoccFa9mInhL-1">
          <mxGeometry x="580" y="320" width="120" height="40" as="geometry" />
        </mxCell>
        <mxCell id="fEP0hPGFHoccFa9mInhL-4" value="No" style="edgeStyle=orthogonalEdgeStyle;rounded=0;html=1;jettySize=auto;orthogonalLoop=1;fontSize=11;endArrow=block;endFill=0;endSize=8;strokeWidth=1;shadow=0;labelBackgroundColor=none;entryX=0.5;entryY=0;entryDx=0;entryDy=0;" edge="1" parent="fEP0hPGFHoccFa9mInhL-1" source="fEP0hPGFHoccFa9mInhL-7" target="fEP0hPGFHoccFa9mInhL-9">
          <mxGeometry y="10" relative="1" as="geometry">
            <mxPoint as="offset" />
            <mxPoint x="550" y="340" as="targetPoint" />
          </mxGeometry>
        </mxCell>
        <mxCell id="fEP0hPGFHoccFa9mInhL-5" value="" style="edgeStyle=orthogonalEdgeStyle;rounded=0;orthogonalLoop=1;jettySize=auto;html=1;" edge="1" parent="fEP0hPGFHoccFa9mInhL-1" source="fEP0hPGFHoccFa9mInhL-7" target="fEP0hPGFHoccFa9mInhL-18">
          <mxGeometry relative="1" as="geometry">
            <Array as="points">
              <mxPoint x="220" y="440" />
              <mxPoint x="220" y="440" />
            </Array>
          </mxGeometry>
        </mxCell>
        <mxCell id="fEP0hPGFHoccFa9mInhL-6" value="Yes" style="edgeLabel;html=1;align=center;verticalAlign=middle;resizable=0;points=[];" vertex="1" connectable="0" parent="fEP0hPGFHoccFa9mInhL-5">
          <mxGeometry x="-0.2982" y="2" relative="1" as="geometry">
            <mxPoint as="offset" />
          </mxGeometry>
        </mxCell>
        <mxCell id="fEP0hPGFHoccFa9mInhL-7" value="Submit/Cancel" style="rhombus;whiteSpace=wrap;html=1;shadow=0;fontFamily=Helvetica;fontSize=12;align=center;strokeWidth=1;spacing=6;spacingTop=-4;" vertex="1" parent="fEP0hPGFHoccFa9mInhL-1">
          <mxGeometry x="80" y="400" width="100" height="80" as="geometry" />
        </mxCell>
        <mxCell id="fEP0hPGFHoccFa9mInhL-8" value="" style="edgeStyle=orthogonalEdgeStyle;rounded=0;orthogonalLoop=1;jettySize=auto;html=1;" edge="1" parent="fEP0hPGFHoccFa9mInhL-1" source="fEP0hPGFHoccFa9mInhL-9" target="fEP0hPGFHoccFa9mInhL-16">
          <mxGeometry relative="1" as="geometry" />
        </mxCell>
        <mxCell id="fEP0hPGFHoccFa9mInhL-9" value="Reset form" style="rounded=1;whiteSpace=wrap;html=1;fontSize=12;glass=0;strokeWidth=1;shadow=0;" vertex="1" parent="fEP0hPGFHoccFa9mInhL-1">
          <mxGeometry x="70" y="560" width="120" height="40" as="geometry" />
        </mxCell>
        <mxCell id="fEP0hPGFHoccFa9mInhL-10" value="" style="edgeStyle=orthogonalEdgeStyle;rounded=0;orthogonalLoop=1;jettySize=auto;html=1;" edge="1" parent="fEP0hPGFHoccFa9mInhL-1" source="fEP0hPGFHoccFa9mInhL-11" target="fEP0hPGFHoccFa9mInhL-13">
          <mxGeometry relative="1" as="geometry" />
        </mxCell>
        <mxCell id="fEP0hPGFHoccFa9mInhL-11" value="Show modal" style="rounded=0;whiteSpace=wrap;html=1;" vertex="1" parent="fEP0hPGFHoccFa9mInhL-1">
          <mxGeometry x="414" y="310" width="120" height="60" as="geometry" />
        </mxCell>
        <mxCell id="fEP0hPGFHoccFa9mInhL-12" value="" style="edgeStyle=orthogonalEdgeStyle;rounded=0;orthogonalLoop=1;jettySize=auto;html=1;" edge="1" parent="fEP0hPGFHoccFa9mInhL-1" source="fEP0hPGFHoccFa9mInhL-13" target="fEP0hPGFHoccFa9mInhL-15">
          <mxGeometry relative="1" as="geometry" />
        </mxCell>
        <mxCell id="fEP0hPGFHoccFa9mInhL-13" value="Input data/ select topic" style="rounded=0;whiteSpace=wrap;html=1;" vertex="1" parent="fEP0hPGFHoccFa9mInhL-1">
          <mxGeometry x="230" y="310" width="120" height="60" as="geometry" />
        </mxCell>
        <mxCell id="fEP0hPGFHoccFa9mInhL-14" style="edgeStyle=orthogonalEdgeStyle;rounded=0;orthogonalLoop=1;jettySize=auto;html=1;" edge="1" parent="fEP0hPGFHoccFa9mInhL-1" source="fEP0hPGFHoccFa9mInhL-15" target="fEP0hPGFHoccFa9mInhL-7">
          <mxGeometry relative="1" as="geometry" />
        </mxCell>
        <mxCell id="fEP0hPGFHoccFa9mInhL-15" value="User action" style="rounded=0;whiteSpace=wrap;html=1;" vertex="1" parent="fEP0hPGFHoccFa9mInhL-1">
          <mxGeometry x="70" y="310" width="120" height="60" as="geometry" />
        </mxCell>
        <mxCell id="fEP0hPGFHoccFa9mInhL-16" value="Hide modal" style="rounded=1;whiteSpace=wrap;html=1;fontSize=12;glass=0;strokeWidth=1;shadow=0;" vertex="1" parent="fEP0hPGFHoccFa9mInhL-1">
          <mxGeometry x="70" y="650" width="120" height="40" as="geometry" />
        </mxCell>
        <mxCell id="fEP0hPGFHoccFa9mInhL-17" value="" style="edgeStyle=orthogonalEdgeStyle;rounded=0;orthogonalLoop=1;jettySize=auto;html=1;" edge="1" parent="fEP0hPGFHoccFa9mInhL-1" source="fEP0hPGFHoccFa9mInhL-18" target="fEP0hPGFHoccFa9mInhL-20">
          <mxGeometry relative="1" as="geometry" />
        </mxCell>
        <mxCell id="fEP0hPGFHoccFa9mInhL-18" value="Validated feild" style="rounded=0;whiteSpace=wrap;html=1;" vertex="1" parent="fEP0hPGFHoccFa9mInhL-1">
          <mxGeometry x="294" y="410" width="120" height="60" as="geometry" />
        </mxCell>
        <mxCell id="fEP0hPGFHoccFa9mInhL-19" value="" style="edgeStyle=orthogonalEdgeStyle;rounded=0;orthogonalLoop=1;jettySize=auto;html=1;" edge="1" parent="fEP0hPGFHoccFa9mInhL-1" source="fEP0hPGFHoccFa9mInhL-20" target="fEP0hPGFHoccFa9mInhL-35">
          <mxGeometry relative="1" as="geometry" />
        </mxCell>
        <mxCell id="fEP0hPGFHoccFa9mInhL-20" value="Call API push to topic" style="whiteSpace=wrap;html=1;rounded=0;" vertex="1" parent="fEP0hPGFHoccFa9mInhL-1">
          <mxGeometry x="480" y="410" width="120" height="60" as="geometry" />
        </mxCell>
        <mxCell id="fEP0hPGFHoccFa9mInhL-21" value="" style="edgeStyle=orthogonalEdgeStyle;rounded=0;orthogonalLoop=1;jettySize=auto;html=1;" edge="1" parent="fEP0hPGFHoccFa9mInhL-1" source="fEP0hPGFHoccFa9mInhL-23" target="fEP0hPGFHoccFa9mInhL-25">
          <mxGeometry relative="1" as="geometry" />
        </mxCell>
        <mxCell id="fEP0hPGFHoccFa9mInhL-22" value="Response" style="edgeLabel;html=1;align=center;verticalAlign=middle;resizable=0;points=[];" vertex="1" connectable="0" parent="fEP0hPGFHoccFa9mInhL-21">
          <mxGeometry x="-0.1714" y="1" relative="1" as="geometry">
            <mxPoint as="offset" />
          </mxGeometry>
        </mxCell>
        <mxCell id="fEP0hPGFHoccFa9mInhL-23" value="Push data to firebase server" style="whiteSpace=wrap;html=1;rounded=0;" vertex="1" parent="fEP0hPGFHoccFa9mInhL-1">
          <mxGeometry x="827" y="410" width="120" height="60" as="geometry" />
        </mxCell>
        <mxCell id="fEP0hPGFHoccFa9mInhL-24" value="" style="edgeStyle=orthogonalEdgeStyle;rounded=0;orthogonalLoop=1;jettySize=auto;html=1;" edge="1" parent="fEP0hPGFHoccFa9mInhL-1" source="fEP0hPGFHoccFa9mInhL-25" target="fEP0hPGFHoccFa9mInhL-30">
          <mxGeometry relative="1" as="geometry" />
        </mxCell>
        <mxCell id="fEP0hPGFHoccFa9mInhL-25" value="Firebase send to devices (tokens) with topic" style="whiteSpace=wrap;html=1;rounded=0;" vertex="1" parent="fEP0hPGFHoccFa9mInhL-1">
          <mxGeometry x="827" y="560" width="120" height="60" as="geometry" />
        </mxCell>
        <mxCell id="fEP0hPGFHoccFa9mInhL-26" value="" style="edgeStyle=orthogonalEdgeStyle;rounded=0;orthogonalLoop=1;jettySize=auto;html=1;" edge="1" parent="fEP0hPGFHoccFa9mInhL-1" source="fEP0hPGFHoccFa9mInhL-30" target="fEP0hPGFHoccFa9mInhL-38">
          <mxGeometry relative="1" as="geometry" />
        </mxCell>
        <mxCell id="fEP0hPGFHoccFa9mInhL-27" value="Yes" style="edgeLabel;html=1;align=center;verticalAlign=middle;resizable=0;points=[];" vertex="1" connectable="0" parent="fEP0hPGFHoccFa9mInhL-26">
          <mxGeometry x="-0.1647" y="2" relative="1" as="geometry">
            <mxPoint as="offset" />
          </mxGeometry>
        </mxCell>
        <mxCell id="fEP0hPGFHoccFa9mInhL-28" value="" style="edgeStyle=orthogonalEdgeStyle;rounded=0;orthogonalLoop=1;jettySize=auto;html=1;" edge="1" parent="fEP0hPGFHoccFa9mInhL-1" source="fEP0hPGFHoccFa9mInhL-30" target="fEP0hPGFHoccFa9mInhL-39">
          <mxGeometry relative="1" as="geometry" />
        </mxCell>
        <mxCell id="fEP0hPGFHoccFa9mInhL-29" value="No" style="edgeLabel;html=1;align=center;verticalAlign=middle;resizable=0;points=[];" vertex="1" connectable="0" parent="fEP0hPGFHoccFa9mInhL-28">
          <mxGeometry x="-0.2444" y="-2" relative="1" as="geometry">
            <mxPoint as="offset" />
          </mxGeometry>
        </mxCell>
        <mxCell id="fEP0hPGFHoccFa9mInhL-30" value="success/fail" style="rhombus;whiteSpace=wrap;html=1;rounded=0;" vertex="1" parent="fEP0hPGFHoccFa9mInhL-1">
          <mxGeometry x="847" y="670" width="80" height="80" as="geometry" />
        </mxCell>
        <mxCell id="fEP0hPGFHoccFa9mInhL-31" value="" style="edgeStyle=orthogonalEdgeStyle;rounded=0;orthogonalLoop=1;jettySize=auto;html=1;entryX=0.5;entryY=0;entryDx=0;entryDy=0;" edge="1" parent="fEP0hPGFHoccFa9mInhL-1" source="fEP0hPGFHoccFa9mInhL-35" target="fEP0hPGFHoccFa9mInhL-37">
          <mxGeometry relative="1" as="geometry">
            <Array as="points">
              <mxPoint x="680" y="530" />
              <mxPoint x="680" y="530" />
            </Array>
          </mxGeometry>
        </mxCell>
        <mxCell id="fEP0hPGFHoccFa9mInhL-32" value="No" style="edgeLabel;html=1;align=center;verticalAlign=middle;resizable=0;points=[];" vertex="1" connectable="0" parent="fEP0hPGFHoccFa9mInhL-31">
          <mxGeometry x="-0.1273" y="-1" relative="1" as="geometry">
            <mxPoint as="offset" />
          </mxGeometry>
        </mxCell>
        <mxCell id="fEP0hPGFHoccFa9mInhL-33" value="" style="edgeStyle=orthogonalEdgeStyle;rounded=0;orthogonalLoop=1;jettySize=auto;html=1;" edge="1" parent="fEP0hPGFHoccFa9mInhL-1" source="fEP0hPGFHoccFa9mInhL-35" target="fEP0hPGFHoccFa9mInhL-23">
          <mxGeometry relative="1" as="geometry">
            <mxPoint x="640" y="545" as="targetPoint" />
          </mxGeometry>
        </mxCell>
        <mxCell id="fEP0hPGFHoccFa9mInhL-34" value="Yes" style="edgeLabel;html=1;align=center;verticalAlign=middle;resizable=0;points=[];" vertex="1" connectable="0" parent="fEP0hPGFHoccFa9mInhL-33">
          <mxGeometry x="-0.271" y="-2" relative="1" as="geometry">
            <mxPoint as="offset" />
          </mxGeometry>
        </mxCell>
        <mxCell id="fEP0hPGFHoccFa9mInhL-35" value="success?" style="rhombus;whiteSpace=wrap;html=1;rounded=0;" vertex="1" parent="fEP0hPGFHoccFa9mInhL-1">
          <mxGeometry x="640" y="400" width="80" height="80" as="geometry" />
        </mxCell>
        <mxCell id="fEP0hPGFHoccFa9mInhL-36" style="edgeStyle=orthogonalEdgeStyle;rounded=0;orthogonalLoop=1;jettySize=auto;html=1;entryX=1;entryY=0.5;entryDx=0;entryDy=0;" edge="1" parent="fEP0hPGFHoccFa9mInhL-1" source="fEP0hPGFHoccFa9mInhL-37" target="fEP0hPGFHoccFa9mInhL-9">
          <mxGeometry relative="1" as="geometry">
            <mxPoint x="130" y="530" as="targetPoint" />
          </mxGeometry>
        </mxCell>
        <mxCell id="fEP0hPGFHoccFa9mInhL-37" value="Show Error" style="whiteSpace=wrap;html=1;rounded=0;" vertex="1" parent="fEP0hPGFHoccFa9mInhL-1">
          <mxGeometry x="620" y="550" width="120" height="60" as="geometry" />
        </mxCell>
        <mxCell id="fEP0hPGFHoccFa9mInhL-42" value="" style="edgeStyle=orthogonalEdgeStyle;rounded=0;orthogonalLoop=1;jettySize=auto;html=1;" edge="1" parent="fEP0hPGFHoccFa9mInhL-1" source="fEP0hPGFHoccFa9mInhL-38" target="fEP0hPGFHoccFa9mInhL-41">
          <mxGeometry relative="1" as="geometry" />
        </mxCell>
        <mxCell id="fEP0hPGFHoccFa9mInhL-38" value="Response success" style="whiteSpace=wrap;html=1;rounded=0;" vertex="1" parent="fEP0hPGFHoccFa9mInhL-1">
          <mxGeometry x="630" y="680" width="120" height="60" as="geometry" />
        </mxCell>
        <mxCell id="fEP0hPGFHoccFa9mInhL-39" value="Response fail" style="whiteSpace=wrap;html=1;rounded=0;" vertex="1" parent="fEP0hPGFHoccFa9mInhL-1">
          <mxGeometry x="827" y="810" width="120" height="60" as="geometry" />
        </mxCell>
        <mxCell id="fEP0hPGFHoccFa9mInhL-40" value="&lt;h1&gt;Push notification to topic&lt;/h1&gt;" style="text;html=1;strokeColor=none;fillColor=none;spacing=5;spacingTop=-20;whiteSpace=wrap;overflow=hidden;rounded=0;" vertex="1" parent="fEP0hPGFHoccFa9mInhL-1">
          <mxGeometry x="294" y="210" width="296" height="120" as="geometry" />
        </mxCell>
        <mxCell id="fEP0hPGFHoccFa9mInhL-45" value="" style="edgeStyle=orthogonalEdgeStyle;rounded=0;orthogonalLoop=1;jettySize=auto;html=1;" edge="1" parent="fEP0hPGFHoccFa9mInhL-1" source="fEP0hPGFHoccFa9mInhL-41" target="fEP0hPGFHoccFa9mInhL-44">
          <mxGeometry relative="1" as="geometry" />
        </mxCell>
        <mxCell id="fEP0hPGFHoccFa9mInhL-41" value="(FE) Firebase server woker catch message" style="whiteSpace=wrap;html=1;rounded=0;" vertex="1" parent="fEP0hPGFHoccFa9mInhL-1">
          <mxGeometry x="430" y="680" width="120" height="60" as="geometry" />
        </mxCell>
        <mxCell id="fEP0hPGFHoccFa9mInhL-43" value="Only device(token) had topic selected can recive" style="text;html=1;strokeColor=none;fillColor=none;align=center;verticalAlign=middle;whiteSpace=wrap;rounded=0;" vertex="1" parent="fEP0hPGFHoccFa9mInhL-1">
          <mxGeometry x="960" y="545" width="90" height="90" as="geometry" />
        </mxCell>
        <mxCell id="fEP0hPGFHoccFa9mInhL-44" value="Show notification" style="whiteSpace=wrap;html=1;rounded=0;" vertex="1" parent="fEP0hPGFHoccFa9mInhL-1">
          <mxGeometry x="260" y="680" width="120" height="60" as="geometry" />
        </mxCell>
      </root>
    </mxGraphModel>
  </diagram>
</mxfile>
